<?xml version="1.0" encoding="UTF-8" standalone="no"?>
<!DOCTYPE svg PUBLIC "-//W3C//DTD SVG 1.1//EN"
 "http://www.w3.org/Graphics/SVG/1.1/DTD/svg11.dtd">
<!-- Generated by graphviz version 14.1.1 (20251213.1925)
 -->
<!-- Title: InheritanceTree Pages: 1 -->
<svg width="477pt" height="285pt"
 viewBox="0.00 0.00 477.00 285.00" xmlns="http://www.w3.org/2000/svg" xmlns:xlink="http://www.w3.org/1999/xlink">
<g id="graph0" class="graph" transform="scale(1 1) rotate(0) translate(4 280.5)">
<title>InheritanceTree</title>
<polygon fill="white" stroke="none" points="-4,4 -4,-280.5 472.5,-280.5 472.5,4 -4,4"/>
<text xml:space="preserve" text-anchor="middle" x="234.25" y="-7.2" font-family="Times New Roman,serif" font-size="14.00">simple_compression &#45; Inheritance Hierarchy</text>
<!-- SIMPLE_COMPRESSION -->
<g id="node1" class="node">
<title>SIMPLE_COMPRESSION</title>
<path fill="none" stroke="black" d="M185.88,-132.5C185.88,-132.5 43.12,-132.5 43.12,-132.5 37.12,-132.5 31.12,-126.5 31.12,-120.5 31.12,-120.5 31.12,-108.5 31.12,-108.5 31.12,-102.5 37.12,-96.5 43.12,-96.5 43.12,-96.5 185.88,-96.5 185.88,-96.5 191.88,-96.5 197.88,-102.5 197.88,-108.5 197.88,-108.5 197.88,-120.5 197.88,-120.5 197.88,-126.5 191.88,-132.5 185.88,-132.5"/>
<text xml:space="preserve" text-anchor="middle" x="114.5" y="-109.45" font-family="Times New Roman,serif" font-size="14.00">SIMPLE_COMPRESSION</text>
</g>
<!-- ZLIB_CONSTANTS -->
<g id="node2" class="node">
<title>ZLIB_CONSTANTS</title>
<path fill="none" stroke="black" d="M456.5,-96.5C456.5,-96.5 349,-96.5 349,-96.5 343,-96.5 337,-90.5 337,-84.5 337,-84.5 337,-72.5 337,-72.5 337,-66.5 343,-60.5 349,-60.5 349,-60.5 456.5,-60.5 456.5,-60.5 462.5,-60.5 468.5,-66.5 468.5,-72.5 468.5,-72.5 468.5,-84.5 468.5,-84.5 468.5,-90.5 462.5,-96.5 456.5,-96.5"/>
<text xml:space="preserve" text-anchor="middle" x="402.75" y="-73.45" font-family="Times New Roman,serif" font-size="14.00">ZLIB_CONSTANTS</text>
</g>
<!-- SIMPLE_COMPRESSION&#45;&gt;ZLIB_CONSTANTS -->
<g id="edge1" class="edge">
<title>SIMPLE_COMPRESSION&#45;&gt;ZLIB_CONSTANTS</title>
<path fill="none" stroke="black" d="M198.19,-114.5C283.22,-114.5 402.5,-114.5 402.5,-114.5 402.5,-114.5 402.5,-108.44 402.5,-108.44"/>
<polygon fill="none" stroke="black" points="406,-108.44 402.5,-98.44 399,-108.44 406,-108.44"/>
</g>
<!-- SIMPLE_COMPRESSION_STREAM -->
<g id="node3" class="node">
<title>SIMPLE_COMPRESSION_STREAM</title>
<path fill="none" stroke="black" d="M217,-60.5C217,-60.5 12,-60.5 12,-60.5 6,-60.5 0,-54.5 0,-48.5 0,-48.5 0,-36.5 0,-36.5 0,-30.5 6,-24.5 12,-24.5 12,-24.5 217,-24.5 217,-24.5 223,-24.5 229,-30.5 229,-36.5 229,-36.5 229,-48.5 229,-48.5 229,-54.5 223,-60.5 217,-60.5"/>
<text xml:space="preserve" text-anchor="middle" x="114.5" y="-37.45" font-family="Times New Roman,serif" font-size="14.00">SIMPLE_COMPRESSION_STREAM</text>
</g>
<!-- SIMPLE_COMPRESSION_STREAM&#45;&gt;ZLIB_CONSTANTS -->
<g id="edge2" class="edge">
<title>SIMPLE_COMPRESSION_STREAM&#45;&gt;ZLIB_CONSTANTS</title>
<path fill="none" stroke="black" d="M213.5,-60.92C213.5,-69.78 213.5,-78.5 213.5,-78.5 213.5,-78.5 325.05,-78.5 325.05,-78.5"/>
<polygon fill="none" stroke="black" points="325.05,-82 335.05,-78.5 325.05,-75 325.05,-82"/>
</g>
<!-- LIB_TESTS -->
<g id="node4" class="node">
<title>LIB_TESTS</title>
<path fill="none" stroke="black" d="M144.62,-204.5C144.62,-204.5 84.38,-204.5 84.38,-204.5 78.38,-204.5 72.38,-198.5 72.38,-192.5 72.38,-192.5 72.38,-180.5 72.38,-180.5 72.38,-174.5 78.38,-168.5 84.38,-168.5 84.38,-168.5 144.62,-168.5 144.62,-168.5 150.62,-168.5 156.62,-174.5 156.62,-180.5 156.62,-180.5 156.62,-192.5 156.62,-192.5 156.62,-198.5 150.62,-204.5 144.62,-204.5"/>
<text xml:space="preserve" text-anchor="middle" x="114.5" y="-181.45" font-family="Times New Roman,serif" font-size="14.00">LIB_TESTS</text>
</g>
<!-- TEST_SET_BASE -->
<g id="node5" class="node">
<title>TEST_SET_BASE</title>
<path fill="none" stroke="black" d="M450.88,-204.5C450.88,-204.5 354.62,-204.5 354.62,-204.5 348.62,-204.5 342.62,-198.5 342.62,-192.5 342.62,-192.5 342.62,-180.5 342.62,-180.5 342.62,-174.5 348.62,-168.5 354.62,-168.5 354.62,-168.5 450.88,-168.5 450.88,-168.5 456.88,-168.5 462.88,-174.5 462.88,-180.5 462.88,-180.5 462.88,-192.5 462.88,-192.5 462.88,-198.5 456.88,-204.5 450.88,-204.5"/>
<text xml:space="preserve" text-anchor="middle" x="402.75" y="-181.45" font-family="Times New Roman,serif" font-size="14.00">TEST_SET_BASE</text>
</g>
<!-- LIB_TESTS&#45;&gt;TEST_SET_BASE -->
<g id="edge3" class="edge">
<title>LIB_TESTS&#45;&gt;TEST_SET_BASE</title>
<path fill="none" stroke="black" d="M157.03,-186.5C157.03,-186.5 330.68,-186.5 330.68,-186.5"/>
<polygon fill="none" stroke="black" points="330.68,-190 340.68,-186.5 330.68,-183 330.68,-190"/>
</g>
<!-- TEST_APP -->
<g id="node6" class="node">
<title>TEST_APP</title>
<path fill="none" stroke="black" d="M142.38,-276.5C142.38,-276.5 86.62,-276.5 86.62,-276.5 80.62,-276.5 74.62,-270.5 74.62,-264.5 74.62,-264.5 74.62,-252.5 74.62,-252.5 74.62,-246.5 80.62,-240.5 86.62,-240.5 86.62,-240.5 142.38,-240.5 142.38,-240.5 148.38,-240.5 154.38,-246.5 154.38,-252.5 154.38,-252.5 154.38,-264.5 154.38,-264.5 154.38,-270.5 148.38,-276.5 142.38,-276.5"/>
<text xml:space="preserve" text-anchor="middle" x="114.5" y="-253.45" font-family="Times New Roman,serif" font-size="14.00">TEST_APP</text>
</g>
</g>
</svg>
