<?xml version="1.0" encoding="UTF-8" standalone="no"?>
<!DOCTYPE svg PUBLIC "-//W3C//DTD SVG 1.1//EN"
 "http://www.w3.org/Graphics/SVG/1.1/DTD/svg11.dtd">
<!-- Generated by graphviz version 14.1.1 (20251213.1925)
 -->
<!-- Title: ContractCoverage Pages: 1 -->
<svg width="816pt" height="710pt"
 viewBox="48.00 48.00 768.00 662.00" xmlns="http://www.w3.org/2000/svg" xmlns:xlink="http://www.w3.org/1999/xlink">
<g id="graph0" class="graph" transform="scale(0.808762 0.808762) rotate(0) translate(63.35 814.98)">
<title>ContractCoverage</title>
<polygon fill="white" stroke="none" points="-4,4 -4,-755.62 886.25,-755.62 886.25,4 -4,4"/>
<text xml:space="preserve" text-anchor="middle" x="441.12" y="-738.12" font-family="Times New Roman,serif" font-size="10.00">simple_compression &#45; Contract Coverage</text>
<g id="clust1" class="cluster">
<title>cluster_SIMPLE_COMPRESSION</title>
<polygon fill="white" stroke="black" points="510.06,-442 510.06,-724.5 764.44,-724.5 764.44,-442 510.06,-442"/>
<text xml:space="preserve" text-anchor="middle" x="637.25" y="-707.2" font-family="Times New Roman,serif" font-size="14.00">SIMPLE_COMPRESSION</text>
</g>
<g id="clust2" class="cluster">
<title>cluster_SIMPLE_COMPRESSION_STREAM</title>
<polygon fill="white" stroke="black" points="510.25,0 510.25,-360.5 882.25,-360.5 882.25,0 510.25,0"/>
<text xml:space="preserve" text-anchor="middle" x="696.25" y="-343.2" font-family="Times New Roman,serif" font-size="14.00">SIMPLE_COMPRESSION_STREAM</text>
</g>
<g id="clust3" class="cluster">
<title>cluster_LIB_TESTS</title>
<polygon fill="white" stroke="black" points="0,-68.5 0,-486 434.5,-486 434.5,-68.5 0,-68.5"/>
<text xml:space="preserve" text-anchor="middle" x="217.25" y="-468.7" font-family="Times New Roman,serif" font-size="14.00">LIB_TESTS</text>
</g>
<g id="clust4" class="cluster">
<title>cluster_TEST_APP</title>
<polygon fill="white" stroke="black" points="0.25,-544.5 0.25,-720 174.25,-720 174.25,-544.5 0.25,-544.5"/>
<text xml:space="preserve" text-anchor="middle" x="87.25" y="-702.7" font-family="Times New Roman,serif" font-size="14.00">TEST_APP</text>
</g>
<g id="clust5" class="cluster">
<title>cluster_legend</title>
<polygon fill="lightyellow" stroke="black" points="237.88,-544.12 237.88,-732.38 450.62,-732.38 450.62,-544.12 237.88,-544.12"/>
<text xml:space="preserve" text-anchor="middle" x="344.25" y="-718.88" font-family="Times New Roman,serif" font-size="10.00">Legend</text>
</g>
<!-- SIMPLE_COMPRESSION_make -->
<g id="node1" class="node">
<title>SIMPLE_COMPRESSION_make</title>
<polygon fill="lightcoral" stroke="black" points="744.19,-478 690.19,-478 690.19,-442 744.19,-442 744.19,-478"/>
<text xml:space="preserve" text-anchor="middle" x="717.19" y="-456.12" font-family="Times New Roman,serif" font-size="10.00">make</text>
</g>
<!-- SIMPLE_COMPRESSION_make_with_level -->
<g id="node2" class="node">
<title>SIMPLE_COMPRESSION_make_with_level</title>
<polygon fill="palegreen" stroke="black" points="608.81,-676 521.56,-676 521.56,-640 608.81,-640 608.81,-676"/>
<text xml:space="preserve" text-anchor="middle" x="565.19" y="-654.12" font-family="Times New Roman,serif" font-size="10.00">make_with_level</text>
</g>
<!-- SIMPLE_COMPRESSION_compression_level -->
<g id="node3" class="node">
<title>SIMPLE_COMPRESSION_compression_level</title>
<polygon fill="lightgray" stroke="black" points="638.44,-580 545.94,-580 545.94,-544 638.44,-544 638.44,-580"/>
<text xml:space="preserve" text-anchor="middle" x="592.19" y="-558.12" font-family="Times New Roman,serif" font-size="10.00">compression_level</text>
</g>
<!-- SIMPLE_COMPRESSION_last_error -->
<g id="node4" class="node">
<title>SIMPLE_COMPRESSION_last_error</title>
<polygon fill="lightgray" stroke="black" points="666.31,-478 612.06,-478 612.06,-442 666.31,-442 666.31,-478"/>
<text xml:space="preserve" text-anchor="middle" x="639.19" y="-456.12" font-family="Times New Roman,serif" font-size="10.00">last_error</text>
</g>
<!-- SIMPLE_COMPRESSION_last_input_size -->
<g id="node5" class="node">
<title>SIMPLE_COMPRESSION_last_input_size</title>
<polygon fill="lightgray" stroke="black" points="588.31,-520 510.06,-520 510.06,-484 588.31,-484 588.31,-520"/>
<text xml:space="preserve" text-anchor="middle" x="549.19" y="-498.12" font-family="Times New Roman,serif" font-size="10.00">last_input_size</text>
</g>
<!-- SIMPLE_COMPRESSION_last_output_size -->
<g id="node6" class="node">
<title>SIMPLE_COMPRESSION_last_output_size</title>
<polygon fill="lightgray" stroke="black" points="742.94,-538 659.44,-538 659.44,-502 742.94,-502 742.94,-538"/>
<text xml:space="preserve" text-anchor="middle" x="701.19" y="-516.12" font-family="Times New Roman,serif" font-size="10.00">last_output_size</text>
</g>
<!-- SIMPLE_COMPRESSION_is_valid_level -->
<g id="node7" class="node">
<title>SIMPLE_COMPRESSION_is_valid_level</title>
<polygon fill="khaki" stroke="black" points="764.44,-700 689.94,-700 689.94,-664 764.44,-664 764.44,-700"/>
<text xml:space="preserve" text-anchor="middle" x="727.19" y="-678.12" font-family="Times New Roman,serif" font-size="10.00">is_valid_level</text>
</g>
<!-- SIMPLE_COMPRESSION_compression_ratio -->
<g id="node8" class="node">
<title>SIMPLE_COMPRESSION_compression_ratio</title>
<polygon fill="lightgray" stroke="black" points="720.69,-640 629.69,-640 629.69,-604 720.69,-604 720.69,-640"/>
<text xml:space="preserve" text-anchor="middle" x="675.19" y="-618.12" font-family="Times New Roman,serif" font-size="10.00">compression_ratio</text>
</g>
<!-- SIMPLE_COMPRESSION_STREAM_make_compress -->
<g id="node9" class="node">
<title>SIMPLE_COMPRESSION_STREAM_make_compress</title>
<polygon fill="palegreen" stroke="black" points="668.5,-96 588,-96 588,-60 668.5,-60 668.5,-96"/>
<text xml:space="preserve" text-anchor="middle" x="628.25" y="-74.12" font-family="Times New Roman,serif" font-size="10.00">make_compress</text>
</g>
<!-- SIMPLE_COMPRESSION_STREAM_make_decompress -->
<g id="node10" class="node">
<title>SIMPLE_COMPRESSION_STREAM_make_decompress</title>
<polygon fill="palegreen" stroke="black" points="714.38,-156 624.12,-156 624.12,-120 714.38,-120 714.38,-156"/>
<text xml:space="preserve" text-anchor="middle" x="669.25" y="-134.12" font-family="Times New Roman,serif" font-size="10.00">make_decompress</text>
</g>
<!-- SIMPLE_COMPRESSION_STREAM_is_compressing -->
<g id="node11" class="node">
<title>SIMPLE_COMPRESSION_STREAM_is_compressing</title>
<polygon fill="lightgray" stroke="black" points="684.75,-246 605.75,-246 605.75,-210 684.75,-210 684.75,-246"/>
<text xml:space="preserve" text-anchor="middle" x="645.25" y="-224.12" font-family="Times New Roman,serif" font-size="10.00">is_compressing</text>
</g>
<!-- SIMPLE_COMPRESSION_STREAM_is_open -->
<g id="node12" class="node">
<title>SIMPLE_COMPRESSION_STREAM_is_open</title>
<polygon fill="lightgray" stroke="black" points="666.25,-36 612.25,-36 612.25,0 666.25,0 666.25,-36"/>
<text xml:space="preserve" text-anchor="middle" x="639.25" y="-14.12" font-family="Times New Roman,serif" font-size="10.00">is_open</text>
</g>
<!-- SIMPLE_COMPRESSION_STREAM_total_input -->
<g id="node13" class="node">
<title>SIMPLE_COMPRESSION_STREAM_total_input</title>
<polygon fill="lightgray" stroke="black" points="661.12,-306 599.38,-306 599.38,-270 661.12,-270 661.12,-306"/>
<text xml:space="preserve" text-anchor="middle" x="630.25" y="-284.12" font-family="Times New Roman,serif" font-size="10.00">total_input</text>
</g>
<!-- SIMPLE_COMPRESSION_STREAM_total_output -->
<g id="node14" class="node">
<title>SIMPLE_COMPRESSION_STREAM_total_output</title>
<polygon fill="lightgray" stroke="black" points="846.75,-54 779.75,-54 779.75,-18 846.75,-18 846.75,-54"/>
<text xml:space="preserve" text-anchor="middle" x="813.25" y="-32.12" font-family="Times New Roman,serif" font-size="10.00">total_output</text>
</g>
<!-- SIMPLE_COMPRESSION_STREAM_compression_level -->
<g id="node15" class="node">
<title>SIMPLE_COMPRESSION_STREAM_compression_level</title>
<polygon fill="lightgray" stroke="black" points="830.5,-114 738,-114 738,-78 830.5,-78 830.5,-114"/>
<text xml:space="preserve" text-anchor="middle" x="784.25" y="-92.12" font-family="Times New Roman,serif" font-size="10.00">compression_level</text>
</g>
<!-- SIMPLE_COMPRESSION_STREAM_last_error -->
<g id="node16" class="node">
<title>SIMPLE_COMPRESSION_STREAM_last_error</title>
<polygon fill="lightgray" stroke="black" points="876.38,-174 822.12,-174 822.12,-138 876.38,-138 876.38,-174"/>
<text xml:space="preserve" text-anchor="middle" x="849.25" y="-152.12" font-family="Times New Roman,serif" font-size="10.00">last_error</text>
</g>
<!-- SIMPLE_COMPRESSION_STREAM_set_level -->
<g id="node17" class="node">
<title>SIMPLE_COMPRESSION_STREAM_set_level</title>
<polygon fill="palegreen" stroke="black" points="582.25,-246 528.25,-246 528.25,-210 582.25,-210 582.25,-246"/>
<text xml:space="preserve" text-anchor="middle" x="555.25" y="-224.12" font-family="Times New Roman,serif" font-size="10.00">set_level</text>
</g>
<!-- SIMPLE_COMPRESSION_STREAM_write -->
<g id="node18" class="node">
<title>SIMPLE_COMPRESSION_STREAM_write</title>
<polygon fill="palegreen" stroke="black" points="564.25,-126 510.25,-126 510.25,-90 564.25,-90 564.25,-126"/>
<text xml:space="preserve" text-anchor="middle" x="537.25" y="-104.12" font-family="Times New Roman,serif" font-size="10.00">write</text>
</g>
<!-- SIMPLE_COMPRESSION_STREAM_write_bytes -->
<g id="node19" class="node">
<title>SIMPLE_COMPRESSION_STREAM_write_bytes</title>
<polygon fill="palegreen" stroke="black" points="604.25,-186 540.25,-186 540.25,-150 604.25,-150 604.25,-186"/>
<text xml:space="preserve" text-anchor="middle" x="572.25" y="-164.12" font-family="Times New Roman,serif" font-size="10.00">write_bytes</text>
</g>
<!-- SIMPLE_COMPRESSION_STREAM_close -->
<g id="node20" class="node">
<title>SIMPLE_COMPRESSION_STREAM_close</title>
<polygon fill="palegreen" stroke="black" points="576.25,-330 522.25,-330 522.25,-294 576.25,-294 576.25,-330"/>
<text xml:space="preserve" text-anchor="middle" x="549.25" y="-308.12" font-family="Times New Roman,serif" font-size="10.00">close</text>
</g>
<!-- SIMPLE_COMPRESSION_STREAM_read_all -->
<g id="node21" class="node">
<title>SIMPLE_COMPRESSION_STREAM_read_all</title>
<polygon fill="palegreen" stroke="black" points="882.25,-336 828.25,-336 828.25,-300 882.25,-300 882.25,-336"/>
<text xml:space="preserve" text-anchor="middle" x="855.25" y="-314.12" font-family="Times New Roman,serif" font-size="10.00">read_all</text>
</g>
<!-- SIMPLE_COMPRESSION_STREAM_read_chunk -->
<g id="node22" class="node">
<title>SIMPLE_COMPRESSION_STREAM_read_chunk</title>
<polygon fill="palegreen" stroke="black" points="748.25,-306 684.25,-306 684.25,-270 748.25,-270 748.25,-306"/>
<text xml:space="preserve" text-anchor="middle" x="716.25" y="-284.12" font-family="Times New Roman,serif" font-size="10.00">read_chunk</text>
</g>
<!-- SIMPLE_COMPRESSION_STREAM_compression_ratio -->
<g id="node23" class="node">
<title>SIMPLE_COMPRESSION_STREAM_compression_ratio</title>
<polygon fill="lightcoral" stroke="black" points="798.75,-216 707.75,-216 707.75,-180 798.75,-180 798.75,-216"/>
<text xml:space="preserve" text-anchor="middle" x="753.25" y="-194.12" font-family="Times New Roman,serif" font-size="10.00">compression_ratio</text>
</g>
<!-- SIMPLE_COMPRESSION_STREAM_output_path -->
<g id="node24" class="node">
<title>SIMPLE_COMPRESSION_STREAM_output_path</title>
<polygon fill="lightgray" stroke="black" points="756.38,-54 690.12,-54 690.12,-18 756.38,-18 756.38,-54"/>
<text xml:space="preserve" text-anchor="middle" x="723.25" y="-32.12" font-family="Times New Roman,serif" font-size="10.00">output_path</text>
</g>
<!-- SIMPLE_COMPRESSION_STREAM_input_path -->
<g id="node25" class="node">
<title>SIMPLE_COMPRESSION_STREAM_input_path</title>
<polygon fill="lightgray" stroke="black" points="588.75,-36 527.75,-36 527.75,0 588.75,0 588.75,-36"/>
<text xml:space="preserve" text-anchor="middle" x="558.25" y="-14.12" font-family="Times New Roman,serif" font-size="10.00">input_path</text>
</g>
<!-- SIMPLE_COMPRESSION_STREAM_output_buffer -->
<g id="node26" class="node">
<title>SIMPLE_COMPRESSION_STREAM_output_buffer</title>
<polygon fill="lightgray" stroke="black" points="840.37,-276 768.12,-276 768.12,-240 840.37,-240 840.37,-276"/>
<text xml:space="preserve" text-anchor="middle" x="804.25" y="-254.12" font-family="Times New Roman,serif" font-size="10.00">output_buffer</text>
</g>
<!-- LIB_TESTS_on_prepare -->
<g id="node27" class="node">
<title>LIB_TESTS_on_prepare</title>
<polygon fill="lightcoral" stroke="black" points="61.75,-328.5 0,-328.5 0,-292.5 61.75,-292.5 61.75,-328.5"/>
<text xml:space="preserve" text-anchor="middle" x="30.87" y="-306.62" font-family="Times New Roman,serif" font-size="10.00">on_prepare</text>
</g>
<!-- LIB_TESTS_test_compress_decompress_basic -->
<g id="node28" class="node">
<title>LIB_TESTS_test_compress_decompress_basic</title>
<polygon fill="lightcoral" stroke="black" points="368.75,-328.5 217,-328.5 217,-292.5 368.75,-292.5 368.75,-328.5"/>
<text xml:space="preserve" text-anchor="middle" x="292.87" y="-306.62" font-family="Times New Roman,serif" font-size="10.00">test_compress_decompress_basic</text>
</g>
<!-- LIB_TESTS_test_compress_decompress_empty -->
<g id="node29" class="node">
<title>LIB_TESTS_test_compress_decompress_empty</title>
<polygon fill="lightcoral" stroke="black" points="255,-272.5 98.75,-272.5 98.75,-236.5 255,-236.5 255,-272.5"/>
<text xml:space="preserve" text-anchor="middle" x="176.88" y="-250.62" font-family="Times New Roman,serif" font-size="10.00">test_compress_decompress_empty</text>
</g>
<!-- LIB_TESTS_test_compress_fast_best -->
<g id="node30" class="node">
<title>LIB_TESTS_test_compress_fast_best</title>
<polygon fill="lightcoral" stroke="black" points="248,-384.5 133.75,-384.5 133.75,-348.5 248,-348.5 248,-384.5"/>
<text xml:space="preserve" text-anchor="middle" x="190.88" y="-362.63" font-family="Times New Roman,serif" font-size="10.00">test_compress_fast_best</text>
</g>
<!-- LIB_TESTS_test_compression_ratio -->
<g id="node31" class="node">
<title>LIB_TESTS_test_compression_ratio</title>
<polygon fill="lightcoral" stroke="black" points="160.13,-160.5 49.63,-160.5 49.63,-124.5 160.13,-124.5 160.13,-160.5"/>
<text xml:space="preserve" text-anchor="middle" x="104.88" y="-138.62" font-family="Times New Roman,serif" font-size="10.00">test_compression_ratio</text>
</g>
<!-- LIB_TESTS_test_base64_encoding -->
<g id="node32" class="node">
<title>LIB_TESTS_test_base64_encoding</title>
<polygon fill="lightcoral" stroke="black" points="156.62,-216.5 49.12,-216.5 49.12,-180.5 156.62,-180.5 156.62,-216.5"/>
<text xml:space="preserve" text-anchor="middle" x="102.87" y="-194.62" font-family="Times New Roman,serif" font-size="10.00">test_base64_encoding</text>
</g>
<!-- LIB_TESTS_test_format_detection -->
<g id="node33" class="node">
<title>LIB_TESTS_test_format_detection</title>
<polygon fill="lightcoral" stroke="black" points="287.5,-160.5 182.25,-160.5 182.25,-124.5 287.5,-124.5 287.5,-160.5"/>
<text xml:space="preserve" text-anchor="middle" x="234.88" y="-138.62" font-family="Times New Roman,serif" font-size="10.00">test_format_detection</text>
</g>
<!-- LIB_TESTS_test_crc32 -->
<g id="node34" class="node">
<title>LIB_TESTS_test_crc32</title>
<polygon fill="lightcoral" stroke="black" points="324.88,-104.5 266.88,-104.5 266.88,-68.5 324.88,-68.5 324.88,-104.5"/>
<text xml:space="preserve" text-anchor="middle" x="295.88" y="-82.62" font-family="Times New Roman,serif" font-size="10.00">test_crc32</text>
</g>
<!-- LIB_TESTS_test_level_settings -->
<g id="node35" class="node">
<title>LIB_TESTS_test_level_settings</title>
<polygon fill="lightcoral" stroke="black" points="303.12,-440.5 210.62,-440.5 210.62,-404.5 303.12,-404.5 303.12,-440.5"/>
<text xml:space="preserve" text-anchor="middle" x="256.87" y="-418.62" font-family="Times New Roman,serif" font-size="10.00">test_level_settings</text>
</g>
<!-- LIB_TESTS_test_large_text -->
<g id="node36" class="node">
<title>LIB_TESTS_test_large_text</title>
<polygon fill="lightcoral" stroke="black" points="119.25,-384.5 42.5,-384.5 42.5,-348.5 119.25,-348.5 119.25,-384.5"/>
<text xml:space="preserve" text-anchor="middle" x="80.88" y="-362.63" font-family="Times New Roman,serif" font-size="10.00">test_large_text</text>
</g>
<!-- LIB_TESTS_test_binary_data -->
<g id="node37" class="node">
<title>LIB_TESTS_test_binary_data</title>
<polygon fill="lightcoral" stroke="black" points="190,-440.5 105.75,-440.5 105.75,-404.5 190,-404.5 190,-440.5"/>
<text xml:space="preserve" text-anchor="middle" x="147.87" y="-418.62" font-family="Times New Roman,serif" font-size="10.00">test_binary_data</text>
</g>
<!-- LIB_TESTS_test_byte_array_compression -->
<g id="node38" class="node">
<title>LIB_TESTS_test_byte_array_compression</title>
<polygon fill="lightcoral" stroke="black" points="317.5,-216.5 182.25,-216.5 182.25,-180.5 317.5,-180.5 317.5,-216.5"/>
<text xml:space="preserve" text-anchor="middle" x="249.88" y="-194.62" font-family="Times New Roman,serif" font-size="10.00">test_byte_array_compression</text>
</g>
<!-- LIB_TESTS_test_file_compression -->
<g id="node39" class="node">
<title>LIB_TESTS_test_file_compression</title>
<polygon fill="lightcoral" stroke="black" points="434.5,-440.5 329.25,-440.5 329.25,-404.5 434.5,-404.5 434.5,-440.5"/>
<text xml:space="preserve" text-anchor="middle" x="381.88" y="-418.62" font-family="Times New Roman,serif" font-size="10.00">test_file_compression</text>
</g>
<!-- LIB_TESTS_test_adler32 -->
<g id="node40" class="node">
<title>LIB_TESTS_test_adler32</title>
<polygon fill="lightcoral" stroke="black" points="249,-104.5 182.75,-104.5 182.75,-68.5 249,-68.5 249,-104.5"/>
<text xml:space="preserve" text-anchor="middle" x="215.88" y="-82.62" font-family="Times New Roman,serif" font-size="10.00">test_adler32</text>
</g>
<!-- LIB_TESTS_test_statistics -->
<g id="node41" class="node">
<title>LIB_TESTS_test_statistics</title>
<polygon fill="lightcoral" stroke="black" points="85.25,-461.5 14.5,-461.5 14.5,-425.5 85.25,-425.5 85.25,-461.5"/>
<text xml:space="preserve" text-anchor="middle" x="49.88" y="-439.63" font-family="Times New Roman,serif" font-size="10.00">test_statistics</text>
</g>
<!-- LIB_TESTS_test_streaming_compression -->
<g id="node42" class="node">
<title>LIB_TESTS_test_streaming_compression</title>
<polygon fill="lightcoral" stroke="black" points="404.62,-384.5 273.12,-384.5 273.12,-348.5 404.62,-348.5 404.62,-384.5"/>
<text xml:space="preserve" text-anchor="middle" x="338.87" y="-362.63" font-family="Times New Roman,serif" font-size="10.00">test_streaming_compression</text>
</g>
<!-- LIB_TESTS_test_advanced_options -->
<g id="node43" class="node">
<title>LIB_TESTS_test_advanced_options</title>
<polygon fill="lightcoral" stroke="black" points="419.12,-160.5 308.62,-160.5 308.62,-124.5 419.12,-124.5 419.12,-160.5"/>
<text xml:space="preserve" text-anchor="middle" x="363.88" y="-138.62" font-family="Times New Roman,serif" font-size="10.00">test_advanced_options</text>
</g>
<!-- LIB_TESTS_test_compression_estimation -->
<g id="node44" class="node">
<title>LIB_TESTS_test_compression_estimation</title>
<polygon fill="lightcoral" stroke="black" points="408.12,-272.5 273.62,-272.5 273.62,-236.5 408.12,-236.5 408.12,-272.5"/>
<text xml:space="preserve" text-anchor="middle" x="340.88" y="-250.62" font-family="Times New Roman,serif" font-size="10.00">test_compression_estimation</text>
</g>
<!-- LIB_TESTS_create_repetitive_text -->
<g id="node45" class="node">
<title>LIB_TESTS_create_repetitive_text</title>
<polygon fill="lightcoral" stroke="black" points="189.5,-328.5 84.25,-328.5 84.25,-292.5 189.5,-292.5 189.5,-328.5"/>
<text xml:space="preserve" text-anchor="middle" x="136.88" y="-306.62" font-family="Times New Roman,serif" font-size="10.00">create_repetitive_text</text>
</g>
<!-- LIB_TESTS_is_printable -->
<g id="node46" class="node">
<title>LIB_TESTS_is_printable</title>
<polygon fill="lightcoral" stroke="black" points="79.25,-272.5 14.5,-272.5 14.5,-236.5 79.25,-236.5 79.25,-272.5"/>
<text xml:space="preserve" text-anchor="middle" x="46.87" y="-250.62" font-family="Times New Roman,serif" font-size="10.00">is_printable</text>
</g>
<!-- LIB_TESTS_temp_file_path -->
<g id="node47" class="node">
<title>LIB_TESTS_temp_file_path</title>
<polygon fill="lightcoral" stroke="black" points="415,-216.5 336.75,-216.5 336.75,-180.5 415,-180.5 415,-216.5"/>
<text xml:space="preserve" text-anchor="middle" x="375.88" y="-194.62" font-family="Times New Roman,serif" font-size="10.00">temp_file_path</text>
</g>
<!-- TEST_APP_make -->
<g id="node48" class="node">
<title>TEST_APP_make</title>
<polygon fill="lightcoral" stroke="black" points="54.25,-580.5 0.25,-580.5 0.25,-544.5 54.25,-544.5 54.25,-580.5"/>
<text xml:space="preserve" text-anchor="middle" x="27.25" y="-558.62" font-family="Times New Roman,serif" font-size="10.00">make</text>
</g>
<!-- TEST_APP_tests -->
<g id="node49" class="node">
<title>TEST_APP_tests</title>
<polygon fill="lightgray" stroke="black" points="99.25,-635.5 45.25,-635.5 45.25,-599.5 99.25,-599.5 99.25,-635.5"/>
<text xml:space="preserve" text-anchor="middle" x="72.25" y="-613.62" font-family="Times New Roman,serif" font-size="10.00">tests</text>
</g>
<!-- TEST_APP_passed -->
<g id="node50" class="node">
<title>TEST_APP_passed</title>
<polygon fill="lightgray" stroke="black" points="164.25,-690.5 110.25,-690.5 110.25,-654.5 164.25,-654.5 164.25,-690.5"/>
<text xml:space="preserve" text-anchor="middle" x="137.25" y="-668.62" font-family="Times New Roman,serif" font-size="10.00">passed</text>
</g>
<!-- TEST_APP_failed -->
<g id="node51" class="node">
<title>TEST_APP_failed</title>
<polygon fill="lightgray" stroke="black" points="89.25,-695.5 35.25,-695.5 35.25,-659.5 89.25,-659.5 89.25,-695.5"/>
<text xml:space="preserve" text-anchor="middle" x="62.25" y="-673.62" font-family="Times New Roman,serif" font-size="10.00">failed</text>
</g>
<!-- TEST_APP_run_test -->
<g id="node52" class="node">
<title>TEST_APP_run_test</title>
<polygon fill="lightcoral" stroke="black" points="174.25,-610.5 120.25,-610.5 120.25,-574.5 174.25,-574.5 174.25,-610.5"/>
<text xml:space="preserve" text-anchor="middle" x="147.25" y="-588.62" font-family="Times New Roman,serif" font-size="10.00">run_test</text>
</g>
<!-- legend_full -->
<g id="node53" class="node">
<title>legend_full</title>
<polygon fill="palegreen" stroke="black" points="440.12,-649.12 325.88,-649.12 325.88,-608.12 440.12,-608.12 440.12,-649.12"/>
<text xml:space="preserve" text-anchor="middle" x="383" y="-631.83" font-family="Times New Roman,serif" font-size="14.00">Full Contract</text>
<text xml:space="preserve" text-anchor="middle" x="383" y="-615.33" font-family="Times New Roman,serif" font-size="14.00">(require + ensure)</text>
</g>
<!-- legend_partial -->
<g id="node54" class="node">
<title>legend_partial</title>
<polygon fill="khaki" stroke="black" points="450.62,-585.12 333.38,-585.12 333.38,-544.12 450.62,-544.12 450.62,-585.12"/>
<text xml:space="preserve" text-anchor="middle" x="392" y="-567.83" font-family="Times New Roman,serif" font-size="14.00">Partial Contract</text>
<text xml:space="preserve" text-anchor="middle" x="392" y="-551.33" font-family="Times New Roman,serif" font-size="14.00">(require or ensure)</text>
</g>
<!-- legend_none -->
<g id="node55" class="node">
<title>legend_none</title>
<polygon fill="lightcoral" stroke="black" points="432.38,-707.62 349.62,-707.62 349.62,-671.62 432.38,-671.62 432.38,-707.62"/>
<text xml:space="preserve" text-anchor="middle" x="391" y="-684.58" font-family="Times New Roman,serif" font-size="14.00">No Contract</text>
</g>
<!-- legend_attr -->
<g id="node56" class="node">
<title>legend_attr</title>
<polygon fill="lightgray" stroke="black" points="326.38,-713.13 261.63,-713.13 261.63,-672.13 326.38,-672.13 326.38,-713.13"/>
<text xml:space="preserve" text-anchor="middle" x="294" y="-695.83" font-family="Times New Roman,serif" font-size="14.00">Attribute</text>
<text xml:space="preserve" text-anchor="middle" x="294" y="-679.33" font-family="Times New Roman,serif" font-size="14.00">(n/a)</text>
</g>
<!-- legend_stats -->
<g id="node57" class="node">
<title>legend_stats</title>
<polygon fill="white" stroke="black" points="298.12,-651.13 237.88,-651.13 237.88,-544.13 304.12,-544.13 304.12,-645.13 298.12,-651.13"/>
<polyline fill="none" stroke="black" points="298.12,-651.13 298.12,-645.13"/>
<polyline fill="none" stroke="black" points="304.12,-645.13 298.12,-645.13"/>
<text xml:space="preserve" text-anchor="middle" x="271" y="-633.83" font-family="Times New Roman,serif" font-size="14.00">Statistics</text>
<text xml:space="preserve" text-anchor="middle" x="271" y="-617.33" font-family="Times New Roman,serif" font-size="14.00">Full: 9</text>
<text xml:space="preserve" text-anchor="middle" x="271" y="-600.83" font-family="Times New Roman,serif" font-size="14.00">Partial: 1</text>
<text xml:space="preserve" text-anchor="middle" x="271" y="-584.33" font-family="Times New Roman,serif" font-size="14.00">None: 25</text>
<text xml:space="preserve" text-anchor="middle" x="271" y="-567.83" font-family="Times New Roman,serif" font-size="14.00">Attr: 17</text>
<text xml:space="preserve" text-anchor="middle" x="271" y="-551.33" font-family="Times New Roman,serif" font-size="14.00">Total: 52</text>
</g>
</g>
</svg>
