<?xml version="1.0" encoding="UTF-8" standalone="no"?>
<!DOCTYPE svg PUBLIC "-//W3C//DTD SVG 1.1//EN"
 "http://www.w3.org/Graphics/SVG/1.1/DTD/svg11.dtd">
<!-- Generated by graphviz version 14.1.1 (20251213.1925)
 -->
<!-- Title: Dependencies Pages: 1 -->
<svg width="378pt" height="357pt"
 viewBox="0.00 0.00 378.00 357.00" xmlns="http://www.w3.org/2000/svg" xmlns:xlink="http://www.w3.org/1999/xlink">
<g id="graph0" class="graph" transform="scale(1 1) rotate(0) translate(4 352.5)">
<title>Dependencies</title>
<polygon fill="white" stroke="none" points="-4,4 -4,-352.5 373.5,-352.5 373.5,4 -4,4"/>
<text xml:space="preserve" text-anchor="middle" x="184.75" y="-7.2" font-family="Times New Roman,serif" font-size="14.00">simple_compression &#45; Dependencies</text>
<!-- simple_compression -->
<g id="node1" class="node">
<title>simple_compression</title>
<polygon fill="lightblue" stroke="black" points="128.5,-204.5 0,-204.5 0,-168.5 128.5,-168.5 128.5,-204.5"/>
<text xml:space="preserve" text-anchor="middle" x="64.25" y="-181.45" font-family="Times New Roman,serif" font-size="14.00">simple_compression</text>
</g>
<!-- simple_base64 -->
<g id="node2" class="node">
<title>simple_base64</title>
<polygon fill="lightblue" stroke="black" points="369.5,-348.5 272.5,-348.5 272.5,-312.5 369.5,-312.5 369.5,-348.5"/>
<text xml:space="preserve" text-anchor="middle" x="321" y="-325.45" font-family="Times New Roman,serif" font-size="14.00">simple_base64</text>
</g>
<!-- simple_compression&#45;&gt;simple_base64 -->
<g id="edge1" class="edge">
<title>simple_compression&#45;&gt;simple_base64</title>
<path fill="none" stroke="black" stroke-dasharray="5,2" d="M64.5,-204.74C64.5,-243.49 64.5,-330.5 64.5,-330.5 64.5,-330.5 260.64,-330.5 260.64,-330.5"/>
<polygon fill="black" stroke="black" points="260.64,-334 270.64,-330.5 260.64,-327 260.64,-334"/>
</g>
<!-- simple_testing -->
<g id="node3" class="node">
<title>simple_testing</title>
<polygon fill="lightblue" stroke="black" points="368.75,-276.5 273.25,-276.5 273.25,-240.5 368.75,-240.5 368.75,-276.5"/>
<text xml:space="preserve" text-anchor="middle" x="321" y="-253.45" font-family="Times New Roman,serif" font-size="14.00">simple_testing</text>
</g>
<!-- simple_compression&#45;&gt;simple_testing -->
<g id="edge2" class="edge">
<title>simple_compression&#45;&gt;simple_testing</title>
<path fill="none" stroke="black" stroke-dasharray="5,2" d="M128.85,-192.5C193.52,-192.5 283.5,-192.5 283.5,-192.5 283.5,-192.5 283.5,-228.6 283.5,-228.6"/>
<polygon fill="black" stroke="black" points="280,-228.6 283.5,-238.6 287,-228.6 280,-228.6"/>
</g>
<!-- base -->
<g id="node4" class="node">
<title>base</title>
<polygon fill="lightgray" stroke="black" points="348,-204.5 294,-204.5 294,-168.5 348,-168.5 348,-204.5"/>
<text xml:space="preserve" text-anchor="middle" x="321" y="-181.45" font-family="Times New Roman,serif" font-size="14.00">base</text>
</g>
<!-- simple_compression&#45;&gt;base -->
<g id="edge3" class="edge">
<title>simple_compression&#45;&gt;base</title>
<path fill="none" stroke="black" stroke-dasharray="5,2" d="M128.71,-180.5C128.71,-180.5 282.19,-180.5 282.19,-180.5"/>
<polygon fill="black" stroke="black" points="282.19,-184 292.19,-180.5 282.19,-177 282.19,-184"/>
</g>
<!-- zlib -->
<g id="node5" class="node">
<title>zlib</title>
<polygon fill="lightgray" stroke="black" points="348,-132.5 294,-132.5 294,-96.5 348,-96.5 348,-132.5"/>
<text xml:space="preserve" text-anchor="middle" x="321" y="-109.45" font-family="Times New Roman,serif" font-size="14.00">zlib</text>
</g>
<!-- simple_compression&#45;&gt;zlib -->
<g id="edge4" class="edge">
<title>simple_compression&#45;&gt;zlib</title>
<path fill="none" stroke="black" stroke-dasharray="5,2" d="M85.5,-168.33C85.5,-147 85.5,-114.5 85.5,-114.5 85.5,-114.5 282.01,-114.5 282.01,-114.5"/>
<polygon fill="black" stroke="black" points="282.01,-118 292.01,-114.5 282.01,-111 282.01,-118"/>
</g>
<!-- testing -->
<g id="node6" class="node">
<title>testing</title>
<polygon fill="lightgray" stroke="black" points="348,-60.5 294,-60.5 294,-24.5 348,-24.5 348,-60.5"/>
<text xml:space="preserve" text-anchor="middle" x="321" y="-37.45" font-family="Times New Roman,serif" font-size="14.00">testing</text>
</g>
<!-- simple_compression&#45;&gt;testing -->
<g id="edge5" class="edge">
<title>simple_compression&#45;&gt;testing</title>
<path fill="none" stroke="black" stroke-dasharray="5,2" d="M42.5,-168.26C42.5,-129.51 42.5,-42.5 42.5,-42.5 42.5,-42.5 282.02,-42.5 282.02,-42.5"/>
<polygon fill="black" stroke="black" points="282.02,-46 292.02,-42.5 282.02,-39 282.02,-46"/>
</g>
</g>
</svg>
